<svg width="15" height="15" viewBox="0 0 15 15" fill="none" xmlns="http://www.w3.org/2000/svg">
<path d="M2.76668 12.7505L1.71387 0.9375H13.2864L12.2321 12.7486L7.49309 14.0625L2.76668 12.7505Z" fill="#1572B6"/>
<path d="M7.5 13.0582L11.3297 11.9964L12.2306 1.90332H7.5V13.0582Z" fill="#33A9DC"/>
<path d="M7.5 6.18299H9.41719L9.54937 4.69939H7.5V3.25049H11.1328L11.0981 3.63908L10.7423 7.63189H7.5V6.18299Z" fill="white"/>
<path d="M7.5092 9.94598L7.50264 9.94785L5.8892 9.51191L5.78607 8.35645H4.33154L4.53451 10.6313L7.50217 11.4554L7.5092 11.4535V9.94598Z" fill="#EBEBEB"/>
<path d="M9.29406 7.5708L9.11969 9.51096L7.50391 9.94689V11.4544L10.4739 10.6313L10.4959 10.3866L10.7477 7.5708H9.29406Z" fill="white"/>
<path d="M7.50502 3.25049V4.69939H4.00533L3.97627 4.37361L3.91018 3.63908L3.87549 3.25049H7.50502Z" fill="#EBEBEB"/>
<path d="M7.5 6.18311V7.63201H5.90672L5.87766 7.30623L5.81203 6.5717L5.77734 6.18311H7.5Z" fill="#EBEBEB"/>
</svg>
