<svg width="35" height="35" viewBox="0 0 35 35" fill="none" xmlns="http://www.w3.org/2000/svg">
<path d="M17.4997 -0.0373535C7.82986 -0.0373535 -0.0385742 7.8289 -0.0385742 17.4998C-0.0385742 27.1708 7.82986 35.037 17.4997 35.037C27.1695 35.037 35.038 27.1708 35.038 17.4998C35.038 7.8289 27.1695 -0.0373535 17.4997 -0.0373535ZM17.4997 33.8689C8.47408 33.8689 1.13174 26.5255 1.13174 17.4998C1.13174 8.47421 8.47408 1.13077 17.4997 1.13077C26.5253 1.13077 33.8677 8.47421 33.8677 17.4998C33.8677 26.5255 26.5253 33.8689 17.4997 33.8689Z" fill="white"/>
<path d="M21.328 7.65617H18.4099C14.6933 7.61898 14.2186 9.91914 14.2186 12.4085V14.2187H12.578C12.5039 14.2088 12.4284 14.2161 12.3576 14.2401C12.2867 14.264 12.2223 14.304 12.1694 14.3569C12.1165 14.4098 12.0765 14.4742 12.0525 14.5451C12.0286 14.616 12.0212 14.6914 12.0311 14.7655V18.0468C12.0212 18.1209 12.0286 18.1964 12.0525 18.2673C12.0765 18.3381 12.1165 18.4025 12.1694 18.4554C12.2223 18.5083 12.2867 18.5483 12.3576 18.5723C12.4284 18.5963 12.5039 18.6036 12.578 18.5937H14.2186V26.7968C14.2095 26.8711 14.2175 26.9465 14.242 27.0172C14.2665 27.0879 14.3068 27.1521 14.3599 27.2049C14.4129 27.2577 14.4774 27.2976 14.5483 27.3216C14.6191 27.3457 14.6946 27.3532 14.7688 27.3437H18.1102C18.4329 27.3809 18.6943 27.1194 18.5915 26.7968L18.5936 18.5937H21.328C21.4022 18.6036 21.4776 18.5963 21.5485 18.5723C21.6193 18.5483 21.6837 18.5083 21.7366 18.4554C21.7895 18.4025 21.8295 18.3381 21.8535 18.2673C21.8775 18.1964 21.8848 18.1209 21.8749 18.0468V14.7655C21.8848 14.6914 21.8775 14.616 21.8535 14.5451C21.8295 14.4742 21.7895 14.4098 21.7366 14.3569C21.6837 14.304 21.6193 14.264 21.5485 14.2401C21.4776 14.2161 21.4022 14.2088 21.328 14.2187H18.5904L18.5936 12.578C18.6997 11.8791 18.6997 11.9929 19.3483 12.0312H21.305C21.4571 11.9973 21.619 12.0159 21.7327 11.9054C21.8465 11.7949 21.9121 11.644 21.8738 11.4843V8.20305C21.8839 8.12895 21.8767 8.05353 21.8529 7.98265C21.8291 7.91178 21.7892 7.84736 21.7364 7.79444C21.6835 7.74151 21.6192 7.70149 21.5484 7.67751C21.4775 7.65353 21.4021 7.64622 21.328 7.65617ZM20.7429 10.8762L19.3713 10.8237C17.6727 10.8237 17.5305 11.7457 17.5305 12.6896L17.5261 14.7634C17.526 14.8401 17.541 14.9162 17.5703 14.9872C17.5996 15.0582 17.6426 15.1227 17.6968 15.1771C17.7511 15.2314 17.8155 15.2745 17.8864 15.304C17.9574 15.3334 18.0334 15.3485 18.1102 15.3485H20.7811V17.4616H18.1124C17.9574 17.4616 17.8087 17.5231 17.699 17.6326C17.5893 17.7421 17.5275 17.8907 17.5272 18.0457L17.5261 26.2499H15.3124V18.0468C15.3124 17.7241 15.0925 17.4627 14.7688 17.4627H13.1249V15.3496H14.7688C14.8455 15.3497 14.9216 15.3347 14.9925 15.3054C15.0634 15.2762 15.1279 15.2332 15.1822 15.179C15.2916 15.0685 15.3113 14.9198 15.3113 14.7645V12.4074C15.3113 9.95523 15.8068 8.78711 18.4088 8.78711H20.7418V10.8762H20.7429Z" fill="white"/>
</svg>
