<svg width="27" height="27" viewBox="0 0 27 27" fill="none" xmlns="http://www.w3.org/2000/svg">
<path d="M13.5 7.48437C12.3102 7.48437 11.1472 7.83718 10.1579 8.49819C9.16863 9.15919 8.3976 10.0987 7.94229 11.1979C7.48698 12.2971 7.36785 13.5067 7.59996 14.6736C7.83208 15.8405 8.40501 16.9124 9.24631 17.7537C10.0876 18.595 11.1595 19.1679 12.3264 19.4C13.4933 19.6321 14.7029 19.513 15.8021 19.0577C16.9013 18.6024 17.8408 17.8314 18.5018 16.8421C19.1628 15.8528 19.5156 14.6898 19.5156 13.5C19.5138 11.9051 18.8794 10.3761 17.7517 9.24831C16.6239 8.12055 15.0949 7.48618 13.5 7.48437ZM13.5 18.4219C12.5265 18.4219 11.575 18.1332 10.7656 17.5924C9.95615 17.0516 9.3253 16.2829 8.95278 15.3835C8.58025 14.4842 8.48279 13.4945 8.6727 12.5398C8.86261 11.585 9.33137 10.708 10.0197 10.0197C10.708 9.33137 11.585 8.86261 12.5398 8.6727C13.4945 8.48278 14.4842 8.58025 15.3835 8.95278C16.2829 9.3253 17.0516 9.95615 17.5924 10.7656C18.1332 11.575 18.4219 12.5265 18.4219 13.5C18.4204 14.8049 17.9014 16.056 16.9787 16.9787C16.056 17.9014 14.8049 18.4204 13.5 18.4219ZM19.5156 0.375H7.48438C5.59951 0.377135 3.79245 1.12684 2.45965 2.45965C1.12684 3.79245 0.377135 5.59951 0.375 7.48437V19.5156C0.377135 21.4005 1.12684 23.2075 2.45965 24.5404C3.79245 25.8732 5.59951 26.6229 7.48438 26.625H19.5156C21.4005 26.6229 23.2076 25.8732 24.5404 24.5404C25.8732 23.2075 26.6229 21.4005 26.625 19.5156V7.48437C26.6229 5.59951 25.8732 3.79245 24.5404 2.45965C23.2076 1.12684 21.4005 0.377135 19.5156 0.375ZM25.5312 19.5156C25.5294 21.1105 24.8951 22.6396 23.7673 23.7673C22.6396 24.8951 21.1105 25.5294 19.5156 25.5312H7.48438C5.88949 25.5294 4.36044 24.8951 3.23268 23.7673C2.10493 22.6396 1.47056 21.1105 1.46875 19.5156V7.48437C1.47056 5.88949 2.10493 4.36044 3.23268 3.23268C4.36044 2.10493 5.88949 1.47056 7.48438 1.46875H19.5156C21.1105 1.47056 22.6396 2.10493 23.7673 3.23268C24.8951 4.36044 25.5294 5.88949 25.5312 7.48437V19.5156ZM21.7031 6.39062C21.7031 6.60695 21.639 6.81841 21.5188 6.99828C21.3986 7.17815 21.2278 7.31833 21.0279 7.40112C20.8281 7.4839 20.6082 7.50556 20.396 7.46336C20.1838 7.42116 19.9889 7.31699 19.836 7.16402C19.683 7.01106 19.5788 6.81617 19.5366 6.604C19.4944 6.39184 19.5161 6.17192 19.5989 5.97206C19.6817 5.77221 19.8219 5.60139 20.0017 5.4812C20.1816 5.36102 20.3931 5.29687 20.6094 5.29687C20.8993 5.29724 21.1773 5.41259 21.3824 5.61763C21.5874 5.82267 21.7028 6.10066 21.7031 6.39062Z" fill="white"/>
</svg>
