<svg width="15" height="8" viewBox="0 0 15 8" fill="none" xmlns="http://www.w3.org/2000/svg">
<path d="M7.5 7.9763C11.6421 7.9763 15 6.19074 15 3.98815C15 1.78556 11.6421 0 7.5 0C3.35786 0 0 1.78556 0 3.98815C0 6.19074 3.35786 7.9763 7.5 7.9763Z" fill="url(#paint0_radial_160:12)"/>
<path d="M7.5 7.68009C11.4803 7.68009 14.707 6.02719 14.707 3.98824C14.707 1.94929 11.4803 0.296387 7.5 0.296387C3.51967 0.296387 0.292969 1.94929 0.292969 3.98824C0.292969 6.02719 3.51967 7.68009 7.5 7.68009Z" fill="#6181B6"/>
<path d="M8.95915 5.18519L9.31657 3.32445C9.3986 2.90371 9.32829 2.58964 9.11735 2.39408C8.91227 2.20445 8.56071 2.10964 8.04508 2.10964H7.42399L7.59977 1.18519C7.60563 1.14964 7.59977 1.11408 7.57633 1.08445C7.5529 1.05482 7.5236 1.04297 7.48844 1.04297H6.63297C6.57438 1.04297 6.5275 1.08445 6.51579 1.13778L6.13493 3.11112C6.09977 2.88593 6.01774 2.6963 5.87711 2.54223C5.62516 2.25186 5.23258 2.10371 4.69938 2.10371H3.05289C2.9943 2.10371 2.94743 2.14519 2.93571 2.19852L2.16813 6.20445C2.16227 6.24001 2.16813 6.27556 2.19157 6.30519C2.215 6.33482 2.2443 6.34667 2.27946 6.34667H3.14079C3.19938 6.34667 3.24625 6.30519 3.25797 6.25186L3.44547 5.28593H4.08415C4.41813 5.28593 4.70524 5.25038 4.92204 5.17927C5.15055 5.10223 5.35563 4.97778 5.53727 4.80593C5.68376 4.66964 5.8068 4.51556 5.90055 4.34964L5.74821 5.14964C5.74235 5.18519 5.74821 5.22075 5.77165 5.25038C5.79508 5.28001 5.82438 5.29186 5.85954 5.29186H6.715C6.7736 5.29186 6.82047 5.25038 6.83219 5.19704L7.25407 3.00445H7.84001C8.09196 3.00445 8.16227 3.05186 8.18571 3.07556C8.20329 3.09334 8.23844 3.16445 8.19743 3.38371L7.85758 5.15556C7.85172 5.19112 7.85758 5.22667 7.88102 5.2563C7.90446 5.28593 7.93376 5.29778 7.96891 5.29778H8.84782C8.90055 5.28001 8.94743 5.23852 8.95915 5.18519ZM4.99821 3.64445C4.94547 3.92297 4.84586 4.12445 4.69938 4.23704C4.5529 4.34964 4.31266 4.4089 3.99625 4.4089H3.6154L3.89079 2.97482H4.38297C4.74625 2.97482 4.89274 3.05186 4.95133 3.11704C5.0275 3.21186 5.04508 3.39556 4.99821 3.64445Z" fill="white"/>
<path d="M12.6154 2.54252C12.3634 2.25215 11.9709 2.104 11.4377 2.104H9.77946C9.72086 2.104 9.67399 2.14549 9.66227 2.19882L8.89469 6.19882C8.88883 6.23437 8.89469 6.26993 8.91813 6.29956C8.94157 6.32919 8.97086 6.34104 9.00602 6.34104H9.86735C9.92594 6.34104 9.97282 6.29956 9.98453 6.24623L10.172 5.2803H10.8107C11.1447 5.2803 11.4318 5.24474 11.6486 5.17363C11.8771 5.0966 12.0822 4.97215 12.2638 4.8003C12.4162 4.65808 12.5451 4.49808 12.6388 4.32623C12.7326 4.15437 12.8029 3.96474 12.8439 3.75734C12.9435 3.24178 12.8673 2.83882 12.6154 2.54252ZM11.7189 3.64474C11.6662 3.92326 11.5666 4.12474 11.4201 4.23734C11.2736 4.34993 11.0334 4.40919 10.717 4.40919H10.3361L10.6115 2.97512H11.1037C11.467 2.97512 11.6134 3.05215 11.672 3.11734C11.7541 3.21215 11.7716 3.39586 11.7189 3.64474Z" fill="white"/>
<path d="M4.38281 2.85673C4.71094 2.85673 4.92773 2.91599 5.03906 3.04043C5.15039 3.16488 5.17383 3.37229 5.11523 3.66858C5.05664 3.97673 4.93945 4.20192 4.76953 4.33229C4.59961 4.46266 4.3418 4.52784 3.99609 4.52784H3.47461L3.79688 2.85673H4.38281ZM2.28516 6.22266H3.14648L3.35156 5.16192H4.08984C4.41797 5.16192 4.68164 5.12636 4.89258 5.05525C5.10352 4.98414 5.29102 4.87155 5.4668 4.70562C5.61328 4.56932 5.73047 4.42117 5.81836 4.26117C5.90625 4.10117 5.9707 3.9234 6.00586 3.72784C6.09961 3.25377 6.0293 2.88636 5.80078 2.61969C5.57227 2.35303 5.20898 2.22266 4.71094 2.22266H3.05273L2.28516 6.22266Z" fill="#000004"/>
<path d="M6.63867 1.16162H7.49414L7.28906 2.22236H8.05078C8.53125 2.22236 8.85937 2.30532 9.04101 2.47718C9.22265 2.64903 9.27539 2.92162 9.20508 3.30088L8.84765 5.16162H7.98047L8.32031 3.38977C8.36133 3.18829 8.34375 3.05199 8.2793 2.98088C8.21484 2.90977 8.06836 2.86829 7.85156 2.86829H7.16602L6.72656 5.16162H5.87109L6.63867 1.16162Z" fill="#000004"/>
<path d="M11.1035 2.85673C11.4316 2.85673 11.6484 2.91599 11.7598 3.04043C11.8711 3.16488 11.8945 3.37229 11.8359 3.66858C11.7773 3.97673 11.6602 4.20192 11.4902 4.33229C11.3203 4.46266 11.0625 4.52784 10.7168 4.52784H10.1953L10.5176 2.85673H11.1035ZM9.00586 6.22266H9.86719L10.0723 5.16192H10.8105C11.1387 5.16192 11.4023 5.12636 11.6133 5.05525C11.8242 4.98414 12.0117 4.87155 12.1875 4.70562C12.334 4.56932 12.4512 4.42117 12.5391 4.26117C12.627 4.10117 12.6914 3.9234 12.7266 3.72784C12.8203 3.25377 12.75 2.88636 12.5215 2.61969C12.293 2.35303 11.9297 2.22266 11.4316 2.22266H9.77344L9.00586 6.22266Z" fill="#000004"/>
<defs>
<radialGradient id="paint0_radial_160:12" cx="0" cy="0" r="1" gradientUnits="userSpaceOnUse" gradientTransform="translate(4.50302 1.40252) scale(9.84934 9.96121)">
<stop stop-color="white"/>
<stop offset="0.5" stop-color="#4C6B97"/>
<stop offset="1" stop-color="#231F20"/>
</radialGradient>
</defs>
</svg>
