<svg width="29" height="27" viewBox="0 0 29 27" fill="none" xmlns="http://www.w3.org/2000/svg">
<path d="M28.2602 0.753378C28.0342 0.558075 27.7591 0.428373 27.4646 0.37834C27.1701 0.328306 26.8676 0.359849 26.5898 0.46955L1.35737 10.3823C1.02757 10.512 0.748601 10.7449 0.562203 11.0463C0.375805 11.3477 0.291997 11.7013 0.323316 12.0543C0.354636 12.4072 0.499398 12.7406 0.735948 13.0044C0.972498 13.2683 1.28812 13.4485 1.63559 13.518L8.48438 14.8879V23.3415C8.48097 23.6667 8.57582 23.9854 8.75653 24.2559C8.93725 24.5263 9.1954 24.7359 9.49719 24.8572C9.69934 24.9418 9.91623 24.9858 10.1354 24.9864C10.3496 24.9857 10.5615 24.9425 10.7589 24.8593C10.9563 24.7761 11.1352 24.6545 11.2852 24.5016L15.1948 20.592L20.9634 25.6683C21.2606 25.9323 21.6443 26.0783 22.0418 26.0788C22.2147 26.0786 22.3864 26.0514 22.5508 25.9981C22.822 25.9121 23.0658 25.7565 23.2581 25.5468C23.4503 25.3371 23.5842 25.0807 23.6464 24.8032L28.7889 2.3631C28.856 2.07209 28.8422 1.76825 28.749 1.48451C28.6559 1.20077 28.4868 0.947927 28.2602 0.753378ZM1.4126 11.9575C1.39905 11.8394 1.4257 11.7201 1.48827 11.619C1.55083 11.518 1.64565 11.4409 1.75741 11.4003L24.8868 2.31361L8.90438 13.8565L1.8501 12.4456C1.7329 12.4253 1.62595 12.3661 1.54656 12.2775C1.46717 12.189 1.41997 12.0762 1.4126 11.9575ZM10.5116 23.7283C10.4352 23.8047 10.3377 23.8568 10.2316 23.8779C10.1256 23.899 10.0156 23.8881 9.91568 23.8468C9.81576 23.8054 9.73036 23.7353 9.67028 23.6453C9.6102 23.5554 9.57813 23.4497 9.57813 23.3415V15.6492L14.372 19.8679L10.5116 23.7283ZM27.7228 2.11879L22.5801 24.5588C22.5589 24.6512 22.5142 24.7364 22.4501 24.8063C22.3861 24.8761 22.3051 24.9281 22.2149 24.9572C22.1248 24.9863 22.0286 24.9914 21.9358 24.9722C21.8431 24.9529 21.7569 24.9099 21.6858 24.8473L9.90694 14.4816L27.6343 1.67855C27.681 1.74066 27.7131 1.81242 27.7284 1.88858C27.7437 1.96473 27.7418 2.04334 27.7228 2.11865V2.11879Z" fill="white"/>
</svg>
