<svg width="15" height="15" viewBox="0 0 15 15" fill="none" xmlns="http://www.w3.org/2000/svg">
<g clip-path="url(#clip0_156:22)">
<path d="M7.50281 4.4167e-07C11.6439 0.00140669 15 3.35895 15 7.5V7.50281C14.9986 11.6446 11.6396 15.0014 7.49725 15C3.35543 14.9986 -0.00140581 11.639 4.4167e-07 7.49725C0.00140669 3.35543 3.36035 -0.00140581 7.50281 4.4167e-07ZM7.46449 1.92891C7.25854 2.70832 6.56408 3.40066 5.83688 4.12787C4.74926 5.2183 3.5127 6.45205 3.5127 8.30514C3.51551 10.4845 5.28018 12.2514 7.45963 12.2569C9.64324 12.2569 11.4142 10.488 11.4163 8.30514C11.4163 6.45205 10.1832 5.219 9.09211 4.12787L8.99467 4.03037C8.30367 3.33856 7.66061 2.67404 7.46449 1.92891ZM7.51811 7.84652C7.9718 8.33016 8.2599 8.6635 8.55838 9.02742C8.58064 9.05455 8.60086 9.08379 8.61897 9.11508C8.9843 9.64184 8.93484 10.3516 8.49996 10.822C7.98785 11.3766 7.12359 11.4107 6.56895 10.8986C6.01436 10.3864 5.98025 9.52219 6.49236 8.9676C6.78328 8.62383 7.13467 8.28563 7.51811 7.84652ZM5.71231 6.03311L5.90297 6.21334L6.78815 7.11861C6.82154 7.15693 6.82154 7.2133 6.78815 7.25162L5.86266 8.27449L5.53904 8.66836C5.41596 8.81824 5.31152 8.98251 5.22803 9.15756C5.21619 9.1868 5.19111 9.20836 5.16053 9.21527H5.12783C5.03807 9.20766 4.93506 9.04201 4.93506 9.04201L4.91865 9.01723C4.89723 8.98389 4.87762 8.94942 4.85988 8.91398L4.84248 8.87643C4.71615 8.46435 4.70581 8.02544 4.8126 7.60787L4.82455 7.56445C4.92297 7.21741 5.07811 6.88903 5.28369 6.59262C5.41584 6.39814 5.55894 6.21133 5.71231 6.03311ZM7.47012 4.20299C7.70596 4.47094 7.9718 4.73953 8.22229 4.99002L8.22785 5.00742C8.7517 5.49542 9.22539 6.03463 9.64184 6.61699C9.9955 7.11389 10.1888 7.70705 10.1958 8.31691C10.1958 8.58045 10.1561 8.84248 10.0781 9.09422L10.0743 9.10459C10.064 9.12983 10.0475 9.15203 10.0262 9.1691C10.005 9.18616 9.97971 9.19751 9.95285 9.20209H9.92783C9.87376 9.18498 9.82806 9.14823 9.79975 9.09908L9.75779 9.03609C9.53208 8.70138 9.27767 8.38695 8.99742 8.09637L8.63631 7.71504L7.43244 6.46113C7.22924 6.26555 6.86602 5.91481 6.71291 5.72414C6.70805 5.71366 6.70223 5.70366 6.69551 5.69426C6.65381 5.63717 6.62161 5.57372 6.60018 5.50635V5.46879C6.5794 5.34637 6.59589 5.22054 6.64752 5.10762C6.68095 5.03581 6.7269 4.97053 6.78322 4.91484C7.01631 4.68176 7.24945 4.45354 7.47 4.20299H7.47012Z" fill="#009DDE"/>
</g>
<defs>
<clipPath id="clip0_156:22">
<rect width="15" height="15" fill="white"/>
</clipPath>
</defs>
</svg>
