<svg width="7" height="15" viewBox="0 0 7 15" fill="none" xmlns="http://www.w3.org/2000/svg">
<path d="M5.39453 14.5427L5.54292 12.1462L5.95267 11.4683C5.95267 11.4683 5.02008 11.838 3.45878 11.838C1.89745 11.838 0.979004 11.4751 0.979004 11.4751L1.43821 12.2146L1.60066 14.5427C1.60066 14.7923 2.44993 14.9946 3.49761 14.9946C4.54523 14.9946 5.39453 14.7923 5.39453 14.5427Z" fill="#D34A47"/>
<path d="M4.92625 3.35105L5.23772 2.15781L6.96259 0.398729L6.50797 0.0234375L4.68185 1.8973L4.3202 3.32291C4.04801 3.31407 3.7757 3.30968 3.50336 3.30974C1.58011 3.30974 0.0209961 3.52217 0.0209961 3.78417C0.0209961 4.04619 1.58011 4.25861 3.50336 4.25861C5.42658 4.25861 6.98567 4.04619 6.98567 3.78417C6.98567 3.59124 6.14009 3.42518 4.92625 3.35105Z" fill="#D34A47"/>
<path d="M4.74526 4.01948C4.74526 4.01948 4.67781 4.03414 4.47937 4.03496C4.28088 4.03576 4.13995 4.03372 4.08382 3.98416C4.06872 3.97085 4.06047 3.94443 4.06055 3.92654C4.06071 3.89249 4.08565 3.87243 4.11742 3.85986L4.14747 3.90555C4.1344 3.90993 4.12694 3.91509 4.12691 3.92061C4.1268 3.94647 4.32986 3.96417 4.48517 3.96227C4.64051 3.96041 4.8282 3.94801 4.82836 3.92251C4.82836 3.9148 4.81417 3.90754 4.78948 3.90182L4.81939 3.85645C4.85964 3.86856 4.89478 3.89196 4.8947 3.93245C4.89431 4.0013 4.80391 4.01177 4.74526 4.01948Z" fill="white"/>
<path d="M6.95921 0.402619C7.00258 0.354068 6.93676 0.22988 6.81221 0.125278C6.6876 0.0207284 6.55143 -0.0246956 6.50798 0.0238556C6.46459 0.0724069 6.53043 0.196594 6.65504 0.301144C6.77959 0.40572 6.91582 0.451197 6.95921 0.402619Z" fill="#D34A47"/>
<path d="M5.31146 8.68889C5.27058 8.30769 6.17175 7.75561 5.94048 7.73793C5.4426 7.76552 5.19481 8.30343 4.94432 8.8668C4.85252 9.07328 4.53842 9.95372 4.33242 9.84533C4.12646 9.73699 4.59943 9.01298 4.73199 8.58302C4.57903 8.69173 4.01807 9.11414 3.87351 8.71855C3.64109 8.90987 3.14444 9.01351 3.20047 8.51096C3.07682 8.72324 2.79931 9.01961 2.46621 8.89646C2.02876 8.73477 2.71968 7.38421 2.89148 7.45235C3.06331 7.52046 2.85681 7.82812 2.80273 7.94759C2.68378 8.21051 2.54638 8.54104 2.63817 8.6087C2.79543 8.72462 3.22335 8.17018 3.23287 8.15799C3.31291 8.0555 3.54093 7.38503 3.7247 7.46202C3.90848 7.53901 3.26631 8.42425 3.50642 8.59993C3.55484 8.63539 3.75298 8.57806 3.87351 8.45168C3.95149 8.36992 3.92467 8.18883 4.18462 7.58799C4.44458 6.98716 4.67626 6.23891 4.85455 6.29592C5.03283 6.3529 4.88588 6.73693 4.82193 6.8801C4.5218 7.55202 4.00282 8.6621 4.24757 8.57806C4.49232 8.49405 4.61977 8.48912 4.85944 8.2173C5.09911 7.94547 5.08806 7.49772 5.2478 7.50723C5.4076 7.51677 5.38078 7.66033 5.34203 7.76965C5.49926 7.59527 6.08731 7.22801 6.22928 7.59175C6.39744 8.02238 5.38794 8.6444 5.63964 8.61268C5.88505 8.58175 6.28263 8.33769 6.45238 8.11579L6.91963 4.04443C6.91963 4.04443 6.44945 4.42155 3.45821 4.42155C0.466942 4.42155 0.0454102 4.05228 0.0454102 4.05228L0.443207 7.76846C0.654355 7.18683 1.15576 6.01036 1.9461 6.04985C2.30562 6.06782 2.78555 6.73876 2.37444 6.7615C2.20043 6.77109 2.18276 6.4266 1.9767 6.37601C1.828 6.33949 1.62098 6.45665 1.48719 6.58359C1.22037 6.83669 0.646508 7.83525 0.722332 8.33308C0.818937 8.96777 1.62599 8.11253 1.76254 7.85862C1.85871 7.67976 1.92368 7.14983 2.13401 7.20543C2.34436 7.26103 2.11566 7.80792 1.96319 8.29145C1.79191 8.83439 1.70187 9.40712 1.48719 9.34124C1.27249 9.27541 1.62221 8.57449 1.60955 8.45168C1.40776 8.63213 1.03599 9.08896 0.560375 8.86285L0.807426 11.1706C0.807426 11.1706 1.46403 11.6734 3.442 11.6734C5.41996 11.6734 6.10087 11.1784 6.10087 11.1784L6.40764 8.50553C6.15666 8.7424 5.36232 9.16304 5.31146 8.68889Z" fill="#D34A47"/>
</svg>
